<?xml version="1.0" encoding="UTF-8" standalone="no"?>
<!DOCTYPE svg PUBLIC "-//W3C//DTD SVG 1.1//EN" "http://www.w3.org/Graphics/SVG/1.1/DTD/svg11.dtd">
<svg xmlns="http://www.w3.org/2000/svg" xmlns:xlink="http://www.w3.org/1999/xlink" version="1.1" width="23.529pt" height="23.529pt" viewBox="0 0 23.529 23.529">
<g enable-background="new">
<path transform="matrix(1,0,0,-1,-46.071,98.518)" stroke-width=".3985" stroke-linecap="butt" stroke-miterlimit="10" stroke-linejoin="miter" fill="none" stroke="#000000" d="M 46.27072 75.18878 L 46.27072 98.31952 L 69.40146 98.31952 L 69.40146 75.18878 Z M 69.40146 98.31952 "/>
<path transform="matrix(1,0,0,-1,-46.071,98.518)" d="M 50.60658 91.09103 L 50.81712 91.10419 M 50.61389 91.10419 L 55.58444 91.11732 M 60.12108 91.11732 L 65.07498 91.10419 M 64.87175 91.10419 L 65.07498 91.10419 "/>
<path transform="matrix(1,0,0,-1,-46.071,98.518)" stroke-width=".3985" stroke-linecap="butt" stroke-miterlimit="10" stroke-linejoin="miter" fill="none" stroke="#000000" d="M 50.60658 91.09103 L 50.81712 91.10419 M 50.61389 91.10419 L 55.58444 91.11732 M 60.12108 91.11732 L 65.07498 91.10419 M 64.87175 91.10419 L 65.07498 91.10419 "/>
<path transform="matrix(1,0,0,-1,-46.071,98.518)" d="M 60.10373 91.09102 L 55.5684 93.92566 L 55.5684 88.25638 Z "/>
<path transform="matrix(1,0,0,-1,-46.071,98.518)" stroke-width=".797" stroke-linecap="butt" stroke-miterlimit="10" stroke-linejoin="miter" fill="none" stroke="#000000" d="M 60.10373 91.09102 L 55.5684 93.92566 L 55.5684 88.25638 Z "/>
<path transform="matrix(1,0,0,-1,-46.071,98.518)" stroke-width=".797" stroke-linecap="butt" stroke-miterlimit="10" stroke-linejoin="miter" fill="none" stroke="#000000" d="M 60.10373 88.25638 L 60.10373 93.92566 "/>
<path transform="matrix(1,0,0,-1,-46.071,98.518)" d="M 65.06558 82.41725 L 64.87175 82.42915 M 65.07498 82.42915 L 60.12108 82.44104 M 55.58444 82.44104 L 50.61389 82.42915 M 50.81712 82.42915 L 50.61389 82.42915 "/>
<path transform="matrix(1,0,0,-1,-46.071,98.518)" stroke-width=".3985" stroke-linecap="butt" stroke-miterlimit="10" stroke-linejoin="miter" fill="none" stroke="#000000" d="M 65.06558 82.41725 L 64.87175 82.42915 M 65.07498 82.42915 L 60.12108 82.44104 M 55.58444 82.44104 L 50.61389 82.42915 M 50.81712 82.42915 L 50.61389 82.42915 "/>
<path transform="matrix(1,0,0,-1,-46.071,98.518)" d="M 55.5684 82.41724 L 60.10373 79.5826 L 60.10373 85.25186 Z "/>
<path transform="matrix(1,0,0,-1,-46.071,98.518)" stroke-width=".797" stroke-linecap="butt" stroke-miterlimit="10" stroke-linejoin="miter" fill="none" stroke="#000000" d="M 55.5684 82.41724 L 60.10373 79.5826 L 60.10373 85.25186 Z "/>
<path transform="matrix(1,0,0,-1,-46.071,98.518)" stroke-width=".797" stroke-linecap="butt" stroke-miterlimit="10" stroke-linejoin="miter" fill="none" stroke="#000000" d="M 55.5684 85.25186 L 55.5684 79.5826 "/>
</g>
</svg>
