<?xml version="1.0" encoding="UTF-8" standalone="no"?>
<!DOCTYPE svg PUBLIC "-//W3C//DTD SVG 1.1//EN" "http://www.w3.org/Graphics/SVG/1.1/DTD/svg11.dtd">
<svg xmlns="http://www.w3.org/2000/svg" xmlns:xlink="http://www.w3.org/1999/xlink" version="1.1" width="23.529pt" height="23.529pt" viewBox="0 0 23.529 23.529">
<g enable-background="new">
<path transform="matrix(1,0,0,-1,-103.906,127.435)" stroke-width=".3985" stroke-linecap="butt" stroke-miterlimit="10" stroke-linejoin="miter" fill="none" stroke="#000000" d="M 104.10684 104.10684 L 104.10684 127.2376 L 127.2376 127.2376 L 127.2376 104.10684 Z M 127.2376 127.2376 "/>
<path transform="matrix(1,0,0,-1,-103.906,127.435)" stroke-width=".3985" stroke-linecap="butt" stroke-miterlimit="10" stroke-linejoin="miter" fill="none" stroke="#000000" d="M 122.9017 115.67221 L 122.71623 115.68892 M 122.91946 115.68892 L 117.97394 115.70561 M 113.4373 115.70561 L 108.45837 115.68892 M 108.6616 115.68892 L 108.45837 115.68892 "/>
<path transform="matrix(1,0,0,-1,-103.906,127.435)" d="M 113.40453 115.6722 L 117.93987 112.83755 L 117.93987 118.50684 L 113.40453 115.6722 "/>
<path transform="matrix(1,0,0,-1,-103.906,127.435)" stroke-width=".797" stroke-linecap="butt" stroke-miterlimit="10" stroke-linejoin="miter" fill="none" stroke="#000000" d="M 113.40453 115.6722 L 117.93987 112.83755 L 117.93987 118.50684 L 113.40453 115.6722 "/>
<path transform="matrix(1,0,0,-1,-103.906,127.435)" stroke-width=".797" stroke-linecap="butt" stroke-miterlimit="10" stroke-linejoin="miter" fill="none" stroke="#000000" d="M 113.40453 118.50684 L 113.40453 112.83755 "/>
</g>
</svg>
