<?xml version="1.0" encoding="UTF-8" standalone="no"?>
<!DOCTYPE svg PUBLIC "-//W3C//DTD SVG 1.1//EN" "http://www.w3.org/Graphics/SVG/1.1/DTD/svg11.dtd">
<svg xmlns="http://www.w3.org/2000/svg" xmlns:xlink="http://www.w3.org/1999/xlink" version="1.1" width="23.529pt" height="23.529pt" viewBox="0 0 23.529 23.529">
<g enable-background="new">
<path transform="matrix(1,0,0,-1,-46.071,98.518)" stroke-width=".3985" stroke-linecap="butt" stroke-miterlimit="10" stroke-linejoin="miter" fill="none" stroke="#000000" d="M 46.27072 75.18878 L 46.27072 98.31952 L 69.40146 98.31952 L 69.40146 75.18878 Z M 69.40146 98.31952 "/>
<path transform="matrix(1,0,0,-1,-46.071,98.518)" d="M 50.60658 86.75414 L 50.81712 86.76668 M 50.61389 86.76668 L 54.45013 86.77917 M 61.2554 86.77917 L 65.07498 86.76668 M 64.87175 86.76668 L 65.07498 86.76668 "/>
<path transform="matrix(1,0,0,-1,-46.071,98.518)" stroke-width=".3985" stroke-linecap="butt" stroke-miterlimit="10" stroke-linejoin="miter" fill="none" stroke="#000000" d="M 50.60658 86.75414 L 50.81712 86.76668 M 50.61389 86.76668 L 54.45013 86.77917 M 61.2554 86.77917 L 65.07498 86.76668 M 64.87175 86.76668 L 65.07498 86.76668 "/>
<path transform="matrix(1,0,0,-1,-46.071,98.518)" stroke-width=".797" stroke-linecap="butt" stroke-linejoin="bevel" fill="none" stroke="#000000" d="M 54.0359 86.59473 C 54.0359 87.29921 54.46126 87.87029 54.98595 87.87029 C 55.51062 87.87029 55.93597 87.29921 55.93597 86.59473 C 55.93597 87.29921 56.36133 87.87029 56.886 87.87029 C 57.41069 87.87029 57.83604 87.29921 57.83604 86.59473 C 57.83604 87.29921 58.2614 87.87029 58.78607 87.87029 C 59.31076 87.87029 59.7361 87.29921 59.7361 86.59473 C 59.7361 87.29921 60.16145 87.87029 60.68614 87.87029 C 61.21082 87.87029 61.63617 87.29921 61.63617 86.59473 "/>
</g>
</svg>
