<?xml version="1.0" encoding="UTF-8" standalone="no"?>
<!DOCTYPE svg PUBLIC "-//W3C//DTD SVG 1.1//EN" "http://www.w3.org/Graphics/SVG/1.1/DTD/svg11.dtd">
<svg xmlns="http://www.w3.org/2000/svg" xmlns:xlink="http://www.w3.org/1999/xlink" version="1.1" width="23.529pt" height="23.529pt" viewBox="0 0 23.529 23.529">
<g enable-background="new">
<path transform="matrix(1,0,0,-1,-103.906,127.435)" stroke-width=".3985" stroke-linecap="butt" stroke-miterlimit="10" stroke-linejoin="miter" fill="none" stroke="#000000" d="M 104.10684 104.10684 L 104.10684 127.2376 L 127.2376 127.2376 L 127.2376 104.10684 Z M 127.2376 127.2376 "/>
<path transform="matrix(1,0,0,-1,-103.906,127.435)" stroke-width=".3985" stroke-linecap="butt" stroke-miterlimit="10" stroke-linejoin="miter" fill="none" stroke="#000000" d="M 115.67221 122.9017 L 115.68892 122.71623 M 115.68892 122.91946 L 115.70561 120.24236 M 115.70561 111.16887 L 115.68892 108.45837 M 115.68892 108.6616 L 115.68892 108.45837 "/>
<path transform="matrix(1,0,0,-1,-103.906,127.435)" stroke-width=".797" stroke-linecap="butt" stroke-linejoin="bevel" fill="none" stroke="#000000" d="M 115.6722 120.60614 L 117.37299 119.41852 L 113.9714 117.84032 L 117.37299 116.26212 L 113.9714 114.6839 L 117.37299 113.1057 L 113.9714 111.52748 L 115.6722 110.73837 "/>
</g>
</svg>
