<?xml version="1.0" encoding="UTF-8" standalone="no"?>
<!DOCTYPE svg PUBLIC "-//W3C//DTD SVG 1.1//EN" "http://www.w3.org/Graphics/SVG/1.1/DTD/svg11.dtd">
<svg xmlns="http://www.w3.org/2000/svg" xmlns:xlink="http://www.w3.org/1999/xlink" version="1.1" width="52.442pt" height="23.529pt" viewBox="0 0 52.442 23.529">
<g enable-background="new">
<path transform="matrix(1,0,0,-1,-103.906,127.435)" stroke-width=".3985" stroke-linecap="butt" stroke-miterlimit="10" stroke-linejoin="miter" fill="none" stroke="#000000" d="M 104.10684 104.10684 L 104.10684 127.2376 L 156.15145 127.2376 L 156.15145 104.10684 Z M 156.15145 127.2376 "/>
<path transform="matrix(1,0,0,-1,-103.906,127.435)" stroke-width=".3985" stroke-linecap="butt" stroke-miterlimit="10" stroke-linejoin="miter" fill="none" stroke="#000000" d="M 108.44272 122.9017 L 108.6616 122.91946 M 108.45837 122.91946 L 115.70561 122.93721 M 115.70561 122.93721 L 122.91946 122.91946 M 122.71623 122.91946 L 122.91946 122.91946 L 122.93695 122.734 M 122.93723 122.93723 L 122.95383 122.23415 M 122.93832 110.82156 L 122.91946 110.08482 M 122.91972 110.28806 L 122.91946 110.08482 M 122.91946 110.08482 L 122.93504 109.8975 M 122.93723 110.10074 L 122.94609 109.29535 M 122.94609 109.29535 L 122.91946 108.45837 M 122.92165 108.66158 L 122.91946 108.45837 M 122.91946 108.45837 L 122.734 108.47383 M 122.93723 108.47403 L 115.71451 108.48186 M 115.71451 108.48186 L 108.45837 108.45837 M 108.66159 108.45857 L 108.45837 108.45837 "/>
<path transform="matrix(1,0,0,-1,-103.906,127.435)" stroke-width=".797" stroke-linecap="butt" stroke-miterlimit="10" stroke-linejoin="miter" fill="none" stroke="#000000" d="M 122.9183 122.19885 L 128.61522 116.48647 L 122.90283 110.78955 L 117.20592 116.50194 Z "/>
<path transform="matrix(1,0,0,-1,-103.906,127.435)" stroke-width=".797" stroke-linecap="butt" stroke-miterlimit="10" stroke-linejoin="miter" fill="none" stroke="#000000" d="M 122.91599 120.48741 L 122.90517 112.50099 "/>
<path transform="matrix(1,0,0,-1,-103.906,127.435)" d="M 122.90767 114.35495 L 122.09273 114.35603 L 122.90533 112.62321 L 123.72261 114.35385 L 122.90767 114.35495 "/>
<path transform="matrix(1,0,0,-1,-103.906,127.435)" stroke-width=".797" stroke-linecap="butt" stroke-miterlimit="10" stroke-linejoin="miter" fill="none" stroke="#000000" d="M 122.90767 114.35495 L 122.09273 114.35603 L 122.90533 112.62321 L 123.72261 114.35385 L 122.90767 114.35495 "/>
<path transform="matrix(1,0,0,-1,-103.906,127.435)" stroke-width=".3985" stroke-linecap="butt" stroke-miterlimit="10" stroke-linejoin="miter" fill="none" stroke="#000000" d="M 112.7796 122.9017 L 112.7959 122.71623 M 112.7959 122.91946 L 112.8122 120.24236 M 112.8122 111.16887 L 112.7959 108.45837 M 112.7959 108.6616 L 112.7959 108.45837 "/>
<path transform="matrix(1,0,0,-1,-103.906,127.435)" stroke-width=".797" stroke-linecap="butt" stroke-linejoin="bevel" fill="none" stroke="#000000" d="M 112.7796 120.60614 L 114.48041 119.41852 L 111.07881 117.84032 L 114.48041 116.26212 L 111.07881 114.6839 L 114.48041 113.1057 L 111.07881 111.52748 L 112.7796 110.73837 "/>
<path transform="matrix(1,0,0,-1,-103.906,127.435)" d="M 113.23306 122.9017 C 113.23306 123.15215 113.03004 123.35516 112.7796 123.35516 C 112.52917 123.35516 112.32614 123.15215 112.32614 122.9017 C 112.32614 122.65128 112.52917 122.44824 112.7796 122.44824 C 113.03004 122.44824 113.23306 122.65128 113.23306 122.9017 Z M 112.7796 122.9017 "/>
<path transform="matrix(1,0,0,-1,-103.906,127.435)" stroke-width=".3985" stroke-linecap="butt" stroke-miterlimit="10" stroke-linejoin="miter" fill="none" stroke="#000000" d="M 113.23306 122.9017 C 113.23306 123.15215 113.03004 123.35516 112.7796 123.35516 C 112.52917 123.35516 112.32614 123.15215 112.32614 122.9017 C 112.32614 122.65128 112.52917 122.44824 112.7796 122.44824 C 113.03004 122.44824 113.23306 122.65128 113.23306 122.9017 Z M 112.7796 122.9017 "/>
<path transform="matrix(1,0,0,-1,-103.906,127.435)" d="M 113.23306 108.44272 C 113.23306 108.69315 113.03004 108.89618 112.7796 108.89618 C 112.52917 108.89618 112.32614 108.69315 112.32614 108.44272 C 112.32614 108.19228 112.52917 107.98926 112.7796 107.98926 C 113.03004 107.98926 113.23306 108.19228 113.23306 108.44272 Z M 112.7796 108.44272 "/>
<path transform="matrix(1,0,0,-1,-103.906,127.435)" stroke-width=".3985" stroke-linecap="butt" stroke-miterlimit="10" stroke-linejoin="miter" fill="none" stroke="#000000" d="M 113.23306 108.44272 C 113.23306 108.69315 113.03004 108.89618 112.7796 108.89618 C 112.52917 108.89618 112.32614 108.69315 112.32614 108.44272 C 112.32614 108.19228 112.52917 107.98926 112.7796 107.98926 C 113.03004 107.98926 113.23306 108.19228 113.23306 108.44272 Z M 112.7796 108.44272 "/>
<path transform="matrix(1,0,0,-1,-103.906,127.435)" stroke-width=".3985" stroke-linecap="butt" stroke-miterlimit="10" stroke-linejoin="miter" fill="none" stroke="#000000" d="M 151.81558 122.9017 L 151.63428 122.91946 M 151.83753 122.91946 L 144.62784 122.93721 M 144.62784 122.93721 L 137.37642 122.91946 M 137.57967 122.91946 L 137.37642 122.91946 L 137.39598 122.734 M 137.39627 122.93723 L 137.41487 122.23415 M 137.39748 110.82156 L 137.37642 110.08482 M 137.37671 110.28806 L 137.37642 110.08482 L 137.39383 109.8975 M 137.39627 110.10074 L 137.40618 109.29535 M 137.40618 109.29535 L 137.37642 108.45837 M 137.37886 108.66158 L 137.37642 108.45837 L 137.5995 108.47383 M 137.39627 108.47403 L 144.63779 108.48186 M 144.63779 108.48186 L 151.83753 108.45837 M 151.6343 108.45857 L 151.83753 108.45837 "/>
<path transform="matrix(1,0,0,-1,-103.906,127.435)" stroke-width=".797" stroke-linecap="butt" stroke-miterlimit="10" stroke-linejoin="miter" fill="none" stroke="#000000" d="M 137.37519 122.19885 L 143.07114 116.4855 L 137.35779 110.78955 L 131.66184 116.5029 Z "/>
<path transform="matrix(1,0,0,-1,-103.906,127.435)" stroke-width=".797" stroke-linecap="butt" stroke-miterlimit="10" stroke-linejoin="miter" fill="none" stroke="#000000" d="M 137.37256 120.48741 L 137.3604 112.50099 "/>
<path transform="matrix(1,0,0,-1,-103.906,127.435)" d="M 137.36322 114.35495 L 136.54827 114.35617 L 137.36058 112.62321 L 138.17816 114.35371 L 137.36322 114.35495 "/>
<path transform="matrix(1,0,0,-1,-103.906,127.435)" stroke-width=".797" stroke-linecap="butt" stroke-miterlimit="10" stroke-linejoin="miter" fill="none" stroke="#000000" d="M 137.36322 114.35495 L 136.54827 114.35617 L 137.36058 112.62321 L 138.17816 114.35371 L 137.36322 114.35495 "/>
<path transform="matrix(1,0,0,-1,-103.906,127.435)" stroke-width=".3985" stroke-linecap="butt" stroke-miterlimit="10" stroke-linejoin="miter" fill="none" stroke="#000000" d="M 147.47867 122.9017 L 147.49997 122.71623 M 147.49997 122.91946 L 147.52127 120.24236 M 147.52127 111.16887 L 147.49997 108.45837 M 147.49997 108.6616 L 147.49997 108.45837 "/>
<path transform="matrix(1,0,0,-1,-103.906,127.435)" stroke-width=".797" stroke-linecap="butt" stroke-linejoin="bevel" fill="none" stroke="#000000" d="M 147.47866 120.60614 L 149.17946 119.41852 L 145.77787 117.84032 L 149.17946 116.26212 L 145.77787 114.6839 L 149.17946 113.1057 L 145.77787 111.52748 L 147.47866 110.73837 "/>
<path transform="matrix(1,0,0,-1,-103.906,127.435)" d="M 147.93213 122.9017 C 147.93213 123.15215 147.72911 123.35516 147.47867 123.35516 C 147.22824 123.35516 147.0252 123.15215 147.0252 122.9017 C 147.0252 122.65128 147.22824 122.44824 147.47867 122.44824 C 147.72911 122.44824 147.93213 122.65128 147.93213 122.9017 Z M 147.47867 122.9017 "/>
<path transform="matrix(1,0,0,-1,-103.906,127.435)" stroke-width=".3985" stroke-linecap="butt" stroke-miterlimit="10" stroke-linejoin="miter" fill="none" stroke="#000000" d="M 147.93213 122.9017 C 147.93213 123.15215 147.72911 123.35516 147.47867 123.35516 C 147.22824 123.35516 147.0252 123.15215 147.0252 122.9017 C 147.0252 122.65128 147.22824 122.44824 147.47867 122.44824 C 147.72911 122.44824 147.93213 122.65128 147.93213 122.9017 Z M 147.47867 122.9017 "/>
<path transform="matrix(1,0,0,-1,-103.906,127.435)" d="M 147.93213 108.44272 C 147.93213 108.69315 147.72911 108.89618 147.47867 108.89618 C 147.22824 108.89618 147.0252 108.69315 147.0252 108.44272 C 147.0252 108.19228 147.22824 107.98926 147.47867 107.98926 C 147.72911 107.98926 147.93213 108.19228 147.93213 108.44272 Z M 147.47867 108.44272 "/>
<path transform="matrix(1,0,0,-1,-103.906,127.435)" stroke-width=".3985" stroke-linecap="butt" stroke-miterlimit="10" stroke-linejoin="miter" fill="none" stroke="#000000" d="M 147.93213 108.44272 C 147.93213 108.69315 147.72911 108.89618 147.47867 108.89618 C 147.22824 108.89618 147.0252 108.69315 147.0252 108.44272 C 147.0252 108.19228 147.22824 107.98926 147.47867 107.98926 C 147.72911 107.98926 147.93213 108.19228 147.93213 108.44272 Z M 147.47867 108.44272 "/>
</g>
</svg>
